<svg width="30" height="30" viewBox="0 0 30 30" fill="none" xmlns="http://www.w3.org/2000/svg">
<g clip-path="url(#clip0)">
<path d="M28.4644 18.1483L26.3587 18.5055C26.1394 19.2136 25.8574 19.8967 25.5127 20.5485L26.7535 22.2844C27.28 23.0239 27.1985 24.0329 26.553 24.6721L24.6855 26.5397C24.3345 26.8906 23.8708 27.0849 23.3757 27.0849C22.9871 27.0849 22.6174 26.9658 22.304 26.7402L20.5618 25.4994C19.885 25.8566 19.1768 26.1511 18.4436 26.3705L18.0926 28.4511C17.9422 29.3473 17.1714 29.999 16.2627 29.999H13.6243C12.7156 29.999 11.9448 29.3473 11.7944 28.4511L11.4309 26.3203C10.729 26.101 10.0459 25.8127 9.39413 25.4618L7.67073 26.7026C7.35738 26.9282 6.98136 27.0473 6.59281 27.0473C6.09773 27.0473 5.62771 26.853 5.28303 26.5021L3.40921 24.6345C2.76998 23.9953 2.68225 22.9863 3.20867 22.2468L4.46206 20.4858C4.11738 19.8278 3.84163 19.1447 3.62855 18.4365L1.54793 18.0856C0.651761 17.9352 0 17.1643 0 16.2556V13.6173C0 12.7086 0.651761 11.9377 1.54793 11.7873L3.67869 11.4238C3.89803 10.7219 4.18631 10.0388 4.53726 9.38708L3.30267 7.66994C2.77625 6.93044 2.85772 5.92146 3.50322 5.28224L5.37076 3.41469C5.72171 3.06374 6.18546 2.86947 6.68055 2.86947C7.0691 2.86947 7.43885 2.98854 7.7522 3.21415L9.51321 4.46754C10.1462 4.13539 10.8105 3.86591 11.4936 3.65283L11.8445 1.54714C11.9949 0.650972 12.7657 -0.000787735 13.6744 -0.000787735H16.3191C17.2278 -0.000787735 17.9986 0.650972 18.149 1.54714L18.5063 3.65283C19.2144 3.87218 19.8975 4.15419 20.5493 4.49887L22.2852 3.25802C22.5986 3.03241 22.9746 2.91334 23.3631 2.91334C23.8582 2.91334 24.322 3.10761 24.6729 3.45856L26.5405 5.32611C27.1797 5.96533 27.2674 6.97431 26.741 7.71381L25.5002 9.45602C25.8448 10.114 26.1331 10.7971 26.3462 11.499L28.4519 11.85C29.3481 12.0004 29.9998 12.7712 29.9998 13.6799V16.3183C30.0123 17.227 29.3606 17.9978 28.4644 18.1483ZM28.3203 13.6799C28.3203 13.5985 28.2639 13.5295 28.1824 13.517L25.5503 13.0783C25.2181 13.0219 24.9549 12.7775 24.8735 12.4579C24.6353 11.5366 24.2718 10.653 23.783 9.83203C23.6138 9.54375 23.6263 9.18654 23.8206 8.91079L25.3685 6.7299C25.4124 6.66723 25.4061 6.57323 25.3497 6.51682L23.4822 4.64928C23.4383 4.60541 23.3945 4.59914 23.3631 4.59914C23.3255 4.59914 23.2942 4.61168 23.2691 4.63048L21.0945 6.17841C20.825 6.37268 20.4615 6.38522 20.1733 6.21601C19.3523 5.72719 18.4687 5.36371 17.5474 5.12556C17.2215 5.04409 16.9771 4.77462 16.927 4.44874L16.482 1.81662C16.4695 1.73515 16.4006 1.67875 16.3191 1.67875H13.6807C13.5992 1.67875 13.5303 1.73515 13.5178 1.81662L13.0791 4.44874C13.0227 4.78088 12.7783 5.04409 12.4587 5.12556C11.5625 5.35744 10.6977 5.71465 9.88922 6.17841C9.75762 6.25361 9.60721 6.29121 9.46307 6.29121C9.29386 6.29121 9.11839 6.24108 8.97425 6.13454L6.78082 4.57407C6.74949 4.55527 6.71815 4.54274 6.68682 4.54274C6.66175 4.54274 6.61162 4.54901 6.56775 4.59287L4.7002 6.46042C4.6438 6.51682 4.63753 6.60456 4.6814 6.6735L6.22307 8.83559C6.41734 9.11133 6.42987 9.47482 6.26067 9.7631C5.77185 10.5778 5.39583 11.4614 5.15769 12.3827C5.06995 12.7023 4.80674 12.9467 4.48086 13.0031L1.82994 13.4543C1.74847 13.4669 1.69207 13.5358 1.69207 13.6173V16.2556C1.69207 16.3371 1.74847 16.406 1.82994 16.4186L4.44326 16.8573C4.7754 16.9137 5.04488 17.1581 5.12635 17.484C5.35823 18.4052 5.71544 19.2951 6.198 20.1161C6.3672 20.4043 6.3484 20.7616 6.15413 21.031L4.59366 23.2245C4.54979 23.2871 4.55606 23.3811 4.61246 23.4375L6.48001 25.3051C6.52388 25.349 6.56775 25.3552 6.59908 25.3552C6.63668 25.3552 6.66802 25.3427 6.69309 25.3239L8.85518 23.7822C9.13092 23.588 9.4944 23.5754 9.78268 23.7446C10.5974 24.2334 11.481 24.6095 12.4023 24.8476C12.7219 24.9353 12.9663 25.1986 13.0227 25.5244L13.4739 28.1753C13.4864 28.2568 13.5554 28.3132 13.6368 28.3132H16.2752C16.3567 28.3132 16.4256 28.2568 16.4382 28.1753L16.8769 25.562C16.9333 25.2299 17.1777 24.9604 17.5035 24.8789C18.4499 24.6408 19.3523 24.271 20.1921 23.776C20.4803 23.6068 20.8376 23.6193 21.1133 23.8136L23.2754 25.3678C23.3067 25.3866 23.3381 25.3991 23.3694 25.3991C23.3945 25.3991 23.4446 25.3928 23.4885 25.349L25.356 23.4814C25.4124 23.425 25.4187 23.3373 25.3748 23.2683L23.8269 21.0937C23.6326 20.8242 23.6201 20.4608 23.7893 20.1725C24.2781 19.3515 24.6416 18.4679 24.8797 17.5466C24.9612 17.2207 25.2307 16.9763 25.5566 16.9262L28.1887 16.4812C28.2701 16.4687 28.3265 16.3998 28.3265 16.3183V13.6799H28.3203Z" fill="black"/>
<path d="M15.003 21.4769C11.4309 21.4769 8.5293 18.5753 8.5293 15.0032C8.5293 11.431 11.4309 8.52944 15.003 8.52944C18.5752 8.52944 21.4768 11.431 21.4768 15.0032C21.4768 18.5753 18.5752 21.4769 15.003 21.4769ZM15.003 10.2215C12.3647 10.2215 10.2214 12.3648 10.2214 15.0032C10.2214 17.6416 12.3647 19.7849 15.003 19.7849C17.6414 19.7849 19.7847 17.6416 19.7847 15.0032C19.7847 12.3648 17.6414 10.2215 15.003 10.2215Z" fill="black"/>
</g>
<defs>
<clipPath id="clip0">
<rect width="30" height="30" fill="white" transform="matrix(1 0 0 -1 0 30)"/>
</clipPath>
</defs>
</svg>
